<svg xmlns="http://www.w3.org/2000/svg" width="84" height="84" viewBox="0 0 84 84"><rect x="0" y="0" width="84" height="84" rx="19" fill="#1E1B4B" stroke="rgba(255,255,255,0.16)" stroke-width="0.6"/><g stroke="#6366F1" stroke-width="1.3" opacity="0.32"><line x1="22" y1="16" x2="22" y2="68"/><line x1="34" y1="16" x2="34" y2="68"/><line x1="50" y1="16" x2="50" y2="68"/><line x1="62" y1="16" x2="62" y2="68"/><line x1="16" y1="22" x2="68" y2="22"/><line x1="16" y1="34" x2="68" y2="34"/><line x1="16" y1="50" x2="68" y2="50"/><line x1="16" y1="62" x2="68" y2="62"/></g><g fill="#818CF8" opacity="0.30"><rect x="24" y="24" width="8" height="8" rx="1"/><rect x="52" y="24" width="8" height="8" rx="1"/><rect x="24" y="52" width="8" height="8" rx="1"/><rect x="52" y="52" width="8" height="8" rx="1"/></g><polygon points="24,42 42,24 42,42" fill="#A5B4FC"/><polygon points="42,24 60,42 42,42" fill="#C7D2FE"/><polygon points="60,42 42,60 42,42" fill="#4338CA"/><polygon points="42,60 24,42 42,42" fill="#4F46E5"/><polygon points="42,24 60,42 42,60 24,42" fill="none" stroke="#C7D2FE" stroke-width="1" opacity="0.85" stroke-linejoin="round"/><line x1="42" y1="24" x2="42" y2="60" stroke="#1E1B4B" stroke-width="0.8" opacity="0.5"/><line x1="24" y1="42" x2="60" y2="42" stroke="#1E1B4B" stroke-width="0.8" opacity="0.4"/><circle cx="42" cy="42" r="2.2" fill="#EEF2FF"/></svg>